<?xml version="1.0" standalone="no"?>
<!DOCTYPE svg PUBLIC "-//W3C//DTD SVG 20010904//EN"
 "http://www.w3.org/TR/2001/REC-SVG-20010904/DTD/svg10.dtd">
<svg version="1.0" xmlns="http://www.w3.org/2000/svg"
 width="256.000000pt" height="256.000000pt" viewBox="0 0 256.000000 256.000000"
 preserveAspectRatio="xMidYMid meet">
<metadata>
Created by potrace 1.10, written by Peter Selinger 2001-2011
</metadata>
<g transform="translate(0.000000,256.000000) scale(0.100000,-0.100000)"
fill="#000000" stroke="none">
<path d="M0 1280 l0 -1280 1280 0 1280 0 0 1280 0 1280 -1280 0 -1280 0 0
-1280z m1486 1155 c165 -29 305 -86 453 -185 440 -295 625 -855 449 -1360
-117 -336 -395 -609 -739 -724 -228 -76 -510 -75 -741 3 -613 208 -943 871
-738 1483 135 403 486 707 903 783 101 18 306 18 413 0z"/>
<path d="M1170 2051 c-139 -30 -265 -144 -305 -276 -19 -64 -19 -190 0 -244
l14 -41 -27 -1 c-61 -1 -67 -10 -64 -83 4 -64 2 -68 -33 -111 -20 -25 -43 -45
-51 -45 -9 0 -29 -13 -45 -29 -43 -43 -41 -101 5 -147 31 -31 40 -34 90 -34
54 0 56 -1 56 -27 0 -16 3 -39 7 -52 6 -22 9 -23 70 -18 54 4 65 2 73 -13 16
-31 12 -39 -29 -50 -90 -24 -115 -80 -66 -152 l24 -36 -43 -11 c-24 -6 -54
-19 -66 -29 -47 -38 -3 -70 139 -100 111 -23 553 -23 668 1 147 30 191 60 143
99 -13 11 -36 22 -52 25 -15 3 -28 7 -28 10 0 2 12 15 27 27 35 30 38 92 8
126 -17 19 -28 22 -80 18 l-60 -5 -24 49 c-23 49 -23 50 -5 91 11 23 19 63 19
89 l0 48 42 0 c47 0 145 33 163 55 9 10 32 15 76 15 52 0 67 4 84 22 25 27 28
114 5 144 -23 31 -18 41 29 54 76 21 105 44 112 90 7 40 7 40 40 34 42 -8 64
8 64 47 0 22 -7 32 -25 41 -22 10 -30 8 -56 -11 -25 -19 -33 -21 -40 -10 -5 8
-9 17 -9 21 0 4 -11 15 -25 24 -23 15 -33 15 -135 -1 -125 -21 -163 -39 -185
-91 -21 -50 -19 -75 9 -117 20 -30 22 -38 11 -47 -8 -6 -15 -28 -17 -48 l-3
-37 -62 -3 c-35 -2 -72 2 -83 8 -21 11 -20 13 19 55 75 82 118 201 108 304
-14 157 -118 299 -257 352 -57 22 -176 32 -230 20z m231 -83 c70 -35 132 -97
167 -168 38 -77 43 -191 12 -272 -29 -79 -96 -150 -177 -190 -59 -29 -75 -32
-152 -32 -71 1 -96 5 -143 27 -147 69 -231 233 -199 389 24 113 118 222 223
260 79 28 196 22 269 -14z m588 -357 c8 -15 7 -20 -5 -25 -22 -8 -14 -51 9
-50 12 1 17 -5 17 -22 0 -58 -46 -19 -57 50 -9 58 14 89 36 47z m-79 -6 c0
-10 -21 -21 -60 -32 -46 -12 -60 -21 -60 -35 0 -11 -11 -23 -27 -30 l-28 -11
30 -7 c17 -4 49 -8 72 -9 32 -1 41 2 37 13 -3 9 4 15 20 18 19 4 29 -1 40 -17
14 -21 13 -23 -22 -33 -20 -6 -52 -13 -69 -17 -36 -7 -42 -19 -17 -33 14 -8
12 -10 -9 -14 -20 -4 -34 5 -72 44 -42 44 -46 53 -41 81 10 49 45 78 107 87
85 12 99 11 99 -5z m-1030 -193 c0 -9 -9 -23 -20 -30 -18 -11 -20 -10 -20 18
0 23 4 30 20 30 12 0 20 -7 20 -18z m878 -34 c17 -17 15 -75 -3 -82 -16 -6
-45 29 -45 54 0 16 18 40 30 40 3 0 11 -5 18 -12z m101 -18 c10 -5 22 -25 25
-45 12 -61 -26 -99 -70 -70 -21 14 -23 21 -18 58 10 63 26 78 63 57z m-826
-45 c98 -65 259 -83 359 -41 20 9 39 12 42 7 10 -16 -58 -34 -154 -40 l-95 -6
-3 -54 c-2 -30 0 -66 3 -79 6 -25 7 -25 98 -19 51 4 114 14 141 22 52 16 62
14 53 -8 -15 -38 -307 -51 -402 -18 -47 17 -50 20 -47 51 1 19 10 39 20 46 56
41 57 42 44 56 -17 17 -149 16 -182 -2 -21 -11 -26 -10 -42 10 -10 12 -18 35
-18 50 0 23 7 31 38 43 57 24 87 20 145 -18z m-205 -132 c-12 -11 -20 -12 -36
-4 -30 16 -33 35 -11 71 l20 33 21 -42 c19 -38 19 -44 6 -58z m878 80 c20 -27
17 -49 -10 -61 -23 -10 -24 -9 -29 26 -6 55 12 71 39 35z m-74 -16 c4 -7 6
-18 3 -25 -3 -8 -5 -20 -5 -28 0 -9 -11 -14 -35 -14 -32 0 -35 2 -35 29 0 16
-3 37 -7 47 -5 15 -2 16 33 9 21 -4 42 -12 46 -18z m-202 -22 c-16 -20 -3 -53
23 -58 20 -3 20 -4 -8 -16 -37 -16 -127 -31 -182 -31 l-43 0 0 45 c0 42 2 45
26 45 22 0 24 -2 14 -14 -16 -21 -9 -60 13 -64 40 -8 64 47 30 67 -14 8 -15
10 -3 11 8 0 26 3 40 6 21 6 23 4 13 -7 -29 -30 -2 -76 37 -64 23 7 27 44 8
63 -10 10 -10 15 2 22 8 5 21 10 29 10 11 0 11 -3 1 -15z m50 -20 c0 -8 -7
-15 -15 -15 -8 0 -15 7 -15 15 0 8 7 15 15 15 8 0 15 -7 15 -15z m-710 -60
c16 -8 35 -15 43 -15 19 0 28 -23 17 -40 -7 -11 -13 -10 -34 3 -31 21 -36 21
-36 2 0 -19 -30 -19 -58 1 -27 19 -30 75 -5 99 15 16 17 15 30 -9 7 -14 27
-33 43 -41z m622 23 c-15 -15 -26 -4 -18 18 5 13 9 15 18 6 9 -9 9 -15 0 -24z
m-92 -3 c0 -8 -7 -15 -15 -15 -8 0 -15 7 -15 15 0 8 7 15 15 15 8 0 15 -7 15
-15z m-377 -32 c-4 -21 -8 -59 -8 -86 0 -36 -4 -49 -17 -53 -30 -9 -40 5 -33
45 3 20 8 53 9 75 3 37 17 56 44 56 10 0 11 -9 5 -37z m192 -118 c96 -23 215
-15 343 21 26 7 27 3 7 -36 -13 -26 -18 -28 -41 -20 -33 13 -74 13 -74 0 0 -5
18 -14 39 -20 25 -6 50 -23 65 -43 l25 -32 -27 -14 c-15 -7 -34 -20 -43 -27
-14 -12 -21 -12 -52 1 -22 9 -67 15 -114 15 -43 0 -96 5 -118 11 -67 18 -115
77 -115 140 0 28 2 31 23 24 12 -3 49 -13 82 -20z m-141 -210 c14 -22 15 -25
1 -25 -24 0 -17 -19 9 -26 24 -6 46 -41 46 -74 0 -21 -28 -40 -48 -33 -19 7
-102 124 -102 143 0 45 68 55 94 15z m536 3 l18 -23 51 19 c62 22 81 16 81
-23 0 -24 -9 -35 -63 -70 -84 -54 -136 -53 -137 3 -1 12 -7 32 -15 46 -12 22
-11 27 7 48 27 28 35 28 58 0z m-171 -17 c21 -11 45 -31 55 -45 l16 -26 -175
0 c-160 0 -175 1 -174 18 0 10 20 27 52 44 67 34 168 38 226 9z"/>
<path d="M1159 1890 c-19 -10 -51 -35 -71 -55 -32 -33 -43 -56 -63 -132 -4
-13 -12 -23 -20 -23 -7 0 -23 -12 -35 -27 -41 -52 -9 -145 58 -167 17 -6 39
-21 48 -34 15 -21 14 -24 -7 -41 -33 -27 -17 -41 40 -34 27 3 64 1 81 -6 18
-6 74 -14 124 -17 l92 -7 36 32 c38 33 48 54 68 141 7 30 19 64 26 75 8 11 14
37 14 58 0 34 -8 46 -79 117 -44 44 -87 80 -95 80 -11 0 -16 9 -16 31 0 31 0
31 -42 24 -24 -4 -58 -13 -75 -21 -31 -12 -33 -12 -33 7 0 23 -5 23 -51 -1z
m297 -165 c34 -23 49 -69 34 -105 -14 -34 -20 -36 -62 -14 -32 17 -121 12
-145 -8 -20 -16 -16 -42 5 -32 9 4 31 8 47 9 17 1 38 5 48 9 23 11 72 -23 72
-50 0 -25 -60 -42 -148 -43 -61 -1 -68 1 -76 22 -5 12 -25 30 -44 40 -62 33
-74 92 -28 138 33 32 67 37 132 18 33 -10 41 -9 65 10 31 24 71 27 100 6z
m-423 -102 c-14 -9 -23 -26 -23 -41 0 -20 3 -23 12 -14 18 18 36 14 43 -8 7
-21 -9 -50 -26 -50 -23 0 -49 42 -49 78 0 46 5 52 39 51 l26 0 -22 -16z m257
-192 c43 -26 115 -28 150 -5 23 16 23 15 -3 -12 -24 -25 -35 -29 -83 -29 -50
0 -58 3 -85 33 -16 18 -29 38 -29 45 0 8 2 9 8 1 4 -6 23 -21 42 -33z m130 19
c0 -14 -45 -23 -75 -16 -14 4 -23 11 -20 16 8 13 95 13 95 0z"/>
<path d="M1392 1688 c-14 -14 -16 -48 -3 -48 5 0 14 7 21 15 7 9 21 13 31 10
27 -9 43 3 28 21 -14 17 -61 18 -77 2z"/>
<path d="M1186 1648 c-8 -12 -13 -25 -10 -30 8 -12 34 -10 34 3 0 6 15 9 34 8
43 -4 57 8 32 27 -29 21 -72 18 -90 -8z"/>
</g>
</svg>
